<svg xmlns="http://www.w3.org/2000/svg" xmlns:xlink="http://www.w3.org/1999/xlink" version="1.1" x="0px" y="0px" viewBox="0 0 100 125" enable-background="new 0 0 100 100" xml:space="preserve"><g><g><path d="M52,59.1c0-1.1-0.9-2-2-2s-2,0.9-2,2v15.1H10v15h80v-15H52V59.1z"/><path d="M30.3,51.9c7.2,2.1,13.7,2.3,15.3,2.3c0.2,0,0.4,0,0.4,0c0.8,0,1.4-0.6,1.5-1.4c0.1-0.6,1.1-13.7-11.7-21.5    c-12.8-7.8-25,0.2-25.6,0.6c-0.5,0.4-0.8,1-0.6,1.7C12.2,42.3,19.3,48.6,30.3,51.9z"/><path d="M90.3,31.9c-0.5-0.3-12.7-8.4-25.6-0.6C51.9,39.1,53,52.2,53,52.7c0.1,0.8,0.7,1.3,1.5,1.4c0,0,0.2,0,0.4,0    c1.7,0,8.2-0.1,15.3-2.3c11-3.2,18.1-9.6,20.6-18.3C91,32.9,90.8,32.2,90.3,31.9z"/></g></g><text x="0" y="115" fill="#000000" font-size="5px" font-weight="bold" font-family="'Helvetica Neue', Helvetica, Arial-Unicode, Arial, Sans-serif">Created by Yu luck</text><text x="0" y="120" fill="#000000" font-size="5px" font-weight="bold" font-family="'Helvetica Neue', Helvetica, Arial-Unicode, Arial, Sans-serif">from the Noun Project</text></svg>