<svg xmlns="http://www.w3.org/2000/svg" xmlns:xlink="http://www.w3.org/1999/xlink" version="1.1" x="0px" y="0px" viewBox="0 0 100 125" enable-background="new 0 0 100 100" xml:space="preserve"><g><g><path d="M83.7,19.5l-3.3-3.3h0c-4.2-4.2-11-4.2-15.1,0l-9,9c-3.9,3.9-4.2,10.1-0.7,14.3L53,42.1v9.9l7.5-7.5    c1.9,1.5,4.3,2.3,6.7,2.3c2.7,0,5.5-1,7.6-3.1l9-9C87.9,30.4,87.9,23.6,83.7,19.5z M78.8,29.7l-9,9c-1.2,1.2-2.9,1.4-4.3,0.7    c1.1-1.4,1-3.4-0.3-4.6c-1.3-1.3-3.3-1.3-4.7-0.2c-0.3-0.5-0.4-1.1-0.4-1.7c0-1,0.4-1.9,1.1-2.6l9-9c0.7-0.7,1.7-1.1,2.6-1.1    s1.9,0.4,2.6,1.1c0,0,0,0,0,0l3.3,3.3C80.2,25.9,80.2,28.2,78.8,29.7z"/><path d="M47,57.9v-9.9l-6.9,6.9c-4.2-3.4-10.4-3.2-14.3,0.7l-9,9c-4.2,4.2-4.2,11,0,15.1l3.3,3.3c2.1,2.1,4.8,3.1,7.6,3.1    s5.5-1,7.6-3.1l9-9c3.9-3.9,4.2-10,0.8-14.2L47,57.9z M39.3,69.2l-9,9c-1.4,1.4-3.8,1.4-5.2,0l-3.3-3.3c-0.7-0.7-1.1-1.6-1.1-2.6    s0.4-1.9,1.1-2.6l9-9c0.7-0.7,1.7-1.1,2.6-1.1c0.7,0,1.4,0.2,2,0.6c-0.5,1.3-0.2,2.7,0.8,3.7c0.7,0.7,1.6,1,2.5,1    c0.4,0,0.8-0.1,1.2-0.2C40.7,66.1,40.5,67.9,39.3,69.2z"/><polygon points="32.9,41.8 31.5,49.2 44.4,44.6   "/><polygon points="47.1,30.2 39.5,32.2 46.7,42.7   "/><polygon points="57,69.9 63.8,62.5 51.7,58.2   "/><polygon points="64.3,57.7 64.8,52.3 57.3,55.2   "/></g></g><text x="0" y="115" fill="#000000" font-size="5px" font-weight="bold" font-family="'Helvetica Neue', Helvetica, Arial-Unicode, Arial, Sans-serif">Created by Yu luck</text><text x="0" y="120" fill="#000000" font-size="5px" font-weight="bold" font-family="'Helvetica Neue', Helvetica, Arial-Unicode, Arial, Sans-serif">from the Noun Project</text></svg>