<svg xmlns="http://www.w3.org/2000/svg" xmlns:xlink="http://www.w3.org/1999/xlink" version="1.1" x="0px" y="0px" viewBox="0 0 100 125" enable-background="new 0 0 100 100" xml:space="preserve"><path d="M78.288,62L64,47.944V41h-7v-5h7V20h-6.932l-5.826-4H53V0H36v16h1.822l-5.759,4H25v16h16V20h-6.118l5.759-4H48.4l5.826,4H48  v16h7v5h-7v16h7v5h-7v16h7v5h-7v17h16V83h-7v-5h7V62h-7v-5h7v-6.757L75.988,62H71v16h16V62H78.288z M40,3h9v10h-9V3z"/><text x="0" y="115" fill="#000000" font-size="5px" font-weight="bold" font-family="'Helvetica Neue', Helvetica, Arial-Unicode, Arial, Sans-serif">Created by Jason D. Rowley</text><text x="0" y="120" fill="#000000" font-size="5px" font-weight="bold" font-family="'Helvetica Neue', Helvetica, Arial-Unicode, Arial, Sans-serif">from the Noun Project</text></svg>