<svg xmlns="http://www.w3.org/2000/svg" xmlns:xlink="http://www.w3.org/1999/xlink" xmlns:sketch="http://www.bohemiancoding.com/sketch/ns" viewBox="0 0 100 125" version="1.1" x="0px" y="0px"><title>b3</title><desc>Created with Sketch.</desc><g stroke="none" stroke-width="1" fill="none" fill-rule="evenodd" sketch:type="MSPage"><path d="M82.9896644,41.5158857 C82.9896644,42.5927884 82.1167867,43.4656661 81.039884,43.4656661 C79.9629813,43.4656661 79.0901036,42.5927884 79.0901036,41.5158857 C79.0901036,40.4389829 79.9629813,39.5661052 81.039884,39.5661052 C82.1167867,39.5661052 82.9896644,40.4389829 82.9896644,41.5158857 M39.1576642,13.8318111 C39.3108389,14.2080407 39.4743085,14.5845823 39.6471371,14.9608119 C43.7869109,23.965366 51.3292856,30.1619242 60.0343533,36.7627889 C61.3910886,37.791649 62.7930587,38.9097311 64.1529136,40.118283 C63.1864464,41.0994126 62.283932,42.1064352 61.4413149,43.0900604 C57.0591444,38.2143614 50.4969633,35.4890363 44.7677285,33.5932258 C40.2442378,32.0961064 35.9693832,30.6033545 32.0560959,28.7977018 C32.0701343,28.7449798 32.0819889,28.6928816 32.0960274,28.6401596 C33.8941929,21.9712865 37.1735676,16.6407428 39.1576642,13.8318111 M78.5928315,60.55323 C76.35074,65.8388508 74.0322171,71.3038514 71.0651192,75.7655729 C66.3563215,82.8462396 56.5734151,87.5812424 45.5342261,88.1221895 C32.7495938,88.7542303 16.6871465,83.6663953 8.89395206,67.7518193 C15.8049098,67.1207144 21.7409774,66.3479774 26.895573,65.4201939 C28.9049387,66.8096854 31.104603,68.074391 33.4998693,69.2080714 C33.715437,69.3100839 33.9425474,69.3581265 34.1662263,69.3581265 C34.7505365,69.3581265 35.3108254,69.0283796 35.5772434,68.465283 C35.9456739,67.6866187 35.6131193,66.7563394 34.834455,66.3882209 C22.3468132,60.4792943 15.5806071,50.8944856 14.7236396,37.8999009 C14.2694188,31.007037 15.6492394,24.9031324 16.6191382,21.6037919 C16.8855562,21.9101414 17.1616451,22.2136832 17.4470929,22.5141054 C24.276004,29.6967846 33.4165747,33.1227828 43.7875348,36.5550203 C50.9727097,38.9325046 59.5738932,42.6698437 62.3319746,50.5322944 C62.6171105,51.3452748 63.5062104,51.7726667 64.3201267,51.4878428 C65.1331072,51.2027069 65.560811,50.3123591 65.2756751,49.4996906 C64.7824587,48.093353 64.1407469,46.806186 63.3814244,45.6232152 C66.8701276,41.4868729 71.1353113,37.0622752 76.7141791,36.1298122 C79.5855038,35.6503222 82.6433834,36.273628 85.8023397,37.9816356 C87.7427612,39.0313974 89.4813414,41.0576093 90.639355,42.5625278 C85.3886743,44.5316501 82.2019531,52.045012 78.5928315,60.55323 M94.4088266,42.3981223 C94.3068141,42.2683449 94.1314898,42.0293798 93.9730116,41.8131882 C92.806575,40.2221674 90.3794883,36.9106602 87.2863566,35.2379046 C83.5028466,33.1911031 79.7729947,32.4573617 76.200061,33.0529027 C72.4146792,33.6855674 69.1952018,35.616318 66.4383682,37.9760203 C64.9465522,36.6367551 63.4079415,35.4057417 61.9189331,34.2767408 C53.5551549,27.934495 46.3194417,22.0056026 42.4816499,13.6574227 C41.9403908,12.4810032 41.5083195,11.3064554 41.1969785,10.1668478 C41.0821755,9.74569519 40.7961037,9.39130309 40.4080194,9.19133361 C39.2609246,8.59984822 38.5249994,9.51359332 38.0380223,10.1184932 C37.7803393,10.4385692 37.3648021,10.9710932 36.8466284,11.6907962 C34.6822161,14.6978255 31.1875857,20.296971 29.2025532,27.3866847 C25.6483374,25.4961776 22.4497616,23.2484707 19.7082143,20.3646674 C18.8150589,19.4247173 18.0264117,18.4529467 17.3644222,17.4761847 C17.1195298,17.1149294 16.7339412,16.8722207 16.3018699,16.8082679 C15.0281173,16.6185933 14.6238108,17.722325 14.3586407,18.4529467 C14.2182565,18.8397831 13.9967615,19.4789992 13.7387665,20.3294154 C12.4147876,24.6913082 10.4547123,33.4185255 12.1995318,42.8567107 C13.6913478,50.925994 17.5004389,57.6142089 23.5600446,62.8458598 C18.5988672,63.6323232 12.9454398,64.2855777 6.42849369,64.8365076 C5.93028579,64.8786229 5.4826162,65.1568956 5.22430929,65.5849114 C4.96600237,66.0129272 4.92856659,66.5388999 5.12354463,66.9993601 C8.63564515,75.2926342 14.604781,81.9037937 22.3864327,86.1190631 C28.6700292,89.5229118 35.873922,91.2954962 43.3529678,91.2954962 C44.1278885,91.2954962 44.9071768,91.2764663 45.6870889,91.2384066 C57.8780522,90.6406819 68.3363625,85.5023085 73.6628507,77.4929224 C76.7909225,72.78974 79.1668469,67.1884108 81.4644682,61.7717647 C85.0838846,53.2398375 88.5023957,45.1811609 93.4401756,45.180537 C94.3015107,45.180537 95,44.4820477 95,43.6207127 C95,43.1253124 94.768834,42.6838821 94.4088266,42.3981223" fill="#000000" sketch:type="MSShapeGroup"/></g><text x="0" y="115" fill="#000000" font-size="5px" font-weight="bold" font-family="'Helvetica Neue', Helvetica, Arial-Unicode, Arial, Sans-serif">Created by Icon Island</text><text x="0" y="120" fill="#000000" font-size="5px" font-weight="bold" font-family="'Helvetica Neue', Helvetica, Arial-Unicode, Arial, Sans-serif">from the Noun Project</text></svg>