<svg xmlns="http://www.w3.org/2000/svg" xmlns:xlink="http://www.w3.org/1999/xlink" version="1.1" x="0px" y="0px" viewBox="0 0 100 125" enable-background="new 0 0 100 100" xml:space="preserve"><path d="M6.9,29.9c0.9,1.1,1.4,4.4,1.6,5.3c0.5,3.2,1.1,7.8,1.2,11c0,0.2,0,0.5,0,0.7c0.1,1.4,0.4,2.7,1,4c3.3,7.1,9.8,16,9.8,16  l0.4,0.5c0.3,0.4,0.8,0.5,1.2,0.3c0.5-0.3,0.6-0.9,0.4-1.3l-8.7-14.1c-0.9-1.6-0.4-3.8,1.3-4.8c1.7-1,3.9-0.5,4.9,1.1l9,11.6  c0.6,0.8,1.7,1.8,2.5,2.4c8.1,5.8,9.2,11.8,9.9,14.8c0,0,0.1,0.7,0.1,1.7h0l0,0c0,0.8,0,1.8-0.2,2.8l-0.5,9.7c0,0.7-0.6,1.3-1.3,1.3  l-15.2-0.1c-0.7,0-1.3-0.6-1.3-1.3l-0.3-8L8.1,66c-2.1-2.3-3.6-4.8-4-7.9l-0.1-0.9L1.4,32.8c-0.1-1.2,0.3-2.4,1.2-3.2  C3.8,28.7,5.6,28.4,6.9,29.9z M10.6,31.6c0.3,0.9,0.4,1.7,0.6,2.6c0.5,2.8,1.1,7.8,1.2,10.4c0,0.3,0,0.5,0,0.8  c0.3-0.3,0.6-0.5,1-0.7c0.4-0.3,0.9-0.5,1.4-0.6c0,0,0-0.1,0.1-0.1c-0.3-2.5-1.2-7.3-1.9-9.8C12.5,32.9,11.8,32,10.6,31.6z   M15.4,35.1c0.4,1.8,1.4,5.2,1.7,7l0.2,1.2c0,0.1,0,0.2,0,0.3c0.7,0,1.5,0.2,2.2,0.4c-0.2-1.6-1.3-4.9-1.7-6.4  C17.4,36.4,16.6,35.5,15.4,35.1z M93.1,29.9c-0.9,1.1-1.4,4.4-1.6,5.3c-0.5,3.2-1.1,7.8-1.2,11c0,0.2,0,0.5,0,0.7  c-0.1,1.4-0.4,2.7-1,4c-3.3,7.1-9.8,16-9.8,16l-0.4,0.5c-0.3,0.4-0.8,0.5-1.2,0.3c-0.5-0.3-0.6-0.9-0.4-1.3l8.7-14.1  c0.9-1.6,0.4-3.8-1.3-4.8c-1.7-1-3.9-0.5-4.9,1.1l-9,11.6c-0.6,0.8-1.7,1.8-2.5,2.4c-8.1,5.8-9.2,11.8-9.9,14.8c0,0-0.1,0.7-0.1,1.7  v0c0,0.8,0,1.8,0.2,2.8l0.5,9.7c0,0.7,0.6,1.3,1.3,1.3l15.2-0.1c0.7,0,1.3-0.6,1.3-1.3l0.3-8L91.9,66c2.1-2.3,3.6-4.8,4-7.9l0.1-0.9  l2.5-24.5c0.1-1.2-0.3-2.4-1.2-3.2C96.2,28.7,94.4,28.4,93.1,29.9z M85.3,44c0.5,0.2,0.9,0.4,1.4,0.6c0.4,0.2,0.7,0.5,1,0.7  c0-0.3,0-0.5,0-0.8c0.1-2.6,0.7-7.6,1.2-10.4c0.1-0.8,0.3-1.7,0.6-2.6c-1.3,0.4-2,1.3-2.3,2.6C86.5,36.6,85.6,41.4,85.3,44  C85.3,43.9,85.3,44,85.3,44z M80.6,44c0.7-0.3,1.4-0.4,2.2-0.4c0-0.1,0-0.2,0-0.3l0.2-1.2c0.2-1.8,1.3-5.1,1.7-7  c-1.2,0.4-1.9,1.3-2.3,2.5C81.9,39.1,80.8,42.4,80.6,44z M70.6,38.1c-0.6,2.8-1.7,5.4-3.2,7.7l2.8,2.8c0.7,0.7,0.7,1.8,0,2.5  l-3.4,3.4c-0.7,0.7-1.8,0.7-2.5,0l-2.8-2.8c-2.3,1.5-4.9,2.6-7.7,3.2v4c0,1-0.8,1.8-1.8,1.8h-4.8c-1,0-1.8-0.8-1.8-1.8v-4  c-2.8-0.6-5.4-1.7-7.7-3.2l-2.8,2.8c-0.7,0.7-1.8,0.7-2.5,0l-3.4-3.4c-0.7-0.7-0.7-1.8,0-2.5l2.8-2.8c-1.5-2.3-2.6-4.9-3.2-7.7h-4  c-1,0-1.8-0.8-1.8-1.8v-4.8c0-1,0.8-1.8,1.8-1.8h4c0.6-2.8,1.7-5.4,3.2-7.7l-2.8-2.8c-0.7-0.7-0.7-1.8,0-2.5l3.4-3.4  c0.7-0.7,1.8-0.7,2.5,0l2.8,2.8c2.3-1.5,4.9-2.6,7.7-3.2v-4c0-1,0.8-1.8,1.8-1.8H52c1,0,1.8,0.8,1.8,1.8v4c2.8,0.6,5.4,1.7,7.7,3.2  l2.8-2.8c0.7-0.7,1.8-0.7,2.5,0l3.4,3.4c0.7,0.7,0.7,1.8,0,2.5L67.4,22c1.5,2.3,2.6,4.9,3.2,7.7h4c1,0,1.8,0.8,1.8,1.8v4.8  c0,1-0.8,1.8-1.8,1.8H70.6z M61.7,33.9c0-6.7-5.4-12.1-12.1-12.1c-6.7,0-12.1,5.4-12.1,12.1c0,6.7,5.4,12.1,12.1,12.1  C56.3,46,61.7,40.6,61.7,33.9z M49.6,27.2c-3.7,0-6.6,3-6.6,6.6c0,3.7,3,6.6,6.6,6.6c3.7,0,6.6-3,6.6-6.6  C56.2,30.2,53.2,27.2,49.6,27.2z"/><text x="0" y="115" fill="#000000" font-size="5px" font-weight="bold" font-family="'Helvetica Neue', Helvetica, Arial-Unicode, Arial, Sans-serif">Created by Gregor Črešnar</text><text x="0" y="120" fill="#000000" font-size="5px" font-weight="bold" font-family="'Helvetica Neue', Helvetica, Arial-Unicode, Arial, Sans-serif">from the Noun Project</text></svg>